<svg xmlns="http://www.w3.org/2000/svg" width="119" height="60" viewBox="0 0 232 117" fill="none" class="injected-svg" data-src="zzish-homepage-assets/img/logos/zzish.svg" xmlns:xlink="http://www.w3.org/1999/xlink">
<path d="M140.809 100.958C140.604 100.916 140.357 100.875 140.151 100.875C136.405 100.749 132.783 100.122 129.285 98.7842C126.98 97.9062 124.798 96.7774 123.069 94.9378C121.464 93.2237 120.723 91.2169 121.094 88.8339C121.382 86.9525 122.123 85.3638 123.563 84.1096C125.045 82.8135 126.733 82.5209 128.626 82.8553C130.025 83.1062 131.301 83.6915 132.536 84.3186C134.43 85.2384 136.323 86.2836 138.381 86.8271C140.11 87.287 141.838 87.5378 143.608 87.1615C144.802 86.9107 145.79 86.3672 146.201 85.0711C146.572 83.8587 146.201 82.5627 145.213 81.7683C144.267 81.0158 143.155 80.5559 142.044 80.096C139.081 78.8836 136.117 77.7129 133.195 76.4587C131.219 75.6225 129.326 74.6191 127.556 73.3231C124.757 71.2745 123.152 68.557 122.74 65.0869C122.37 61.9931 122.658 58.9829 123.893 56.0982C125.004 53.5061 126.65 51.3321 128.832 49.5343C131.301 47.4857 134.1 46.1897 137.228 45.5208C139.986 44.9355 142.744 44.8518 145.502 45.2281C148.63 45.688 151.675 46.5242 154.474 48.1129C156.121 49.0744 157.602 50.2451 158.673 51.8756C160.196 54.2586 160.401 57.436 158.796 59.8191C157.685 61.4914 156.08 62.3276 154.145 62.5366C152.993 62.662 151.922 62.3276 150.893 61.8677C149.535 61.2824 148.218 60.6553 146.901 60.0281C145.419 59.3592 143.896 58.8157 142.291 58.6067C141.097 58.4812 139.904 58.5231 138.792 59.1502C137.228 60.0281 136.529 62.4948 138.422 63.9581C139.492 64.7943 140.727 65.3796 142.003 65.8813C144.308 66.801 146.613 67.6372 148.877 68.5988C151.552 69.7276 154.145 71.0655 156.368 73.0304C158.837 75.2463 160.442 78.0056 160.854 81.392C161.266 84.6949 160.813 87.9141 159.413 90.9243C158.343 93.1819 156.779 95.1051 154.845 96.652C152.54 98.4915 149.906 99.6621 147.066 100.331C145.584 100.707 144.02 100.916 142.497 100.916C142.209 100.916 141.921 100.958 141.632 101C141.262 100.958 141.015 100.958 140.809 100.958Z" fill="#FFF"></path>
<path d="M166.291 59.7296C166.374 49.0677 166.457 38.3634 166.54 27.7015C166.54 26.0024 166.872 24.3457 167.703 22.9015C169.073 20.5652 171.108 19.2909 173.724 19.036C176.174 18.8236 178.334 19.5458 180.12 21.3298C181.49 22.7316 182.238 24.4307 182.404 26.3847C182.487 27.1068 182.487 27.8289 182.487 28.551C182.445 34.328 182.404 40.105 182.362 45.8819C182.362 46.0093 182.321 46.1793 182.362 46.3067C182.404 46.3916 182.57 46.5191 182.653 46.4766C182.819 46.4341 182.985 46.3067 183.151 46.2217C185.311 44.9049 187.595 43.843 190.045 43.2483C192.578 42.6111 195.153 42.4412 197.769 42.6111C199.846 42.7386 201.88 43.0784 203.874 43.7156C207.487 44.8625 210.518 46.8589 212.761 50.0023C214.173 51.9987 215.086 54.25 215.543 56.6712C215.792 58.073 216 59.4748 216 60.8765C216 71.4535 215.917 82.0304 215.834 92.6074C215.792 95.3684 214.796 97.7472 212.553 99.4463C210.85 100.721 208.94 101.188 206.864 100.933C204.414 100.636 202.503 99.4463 201.174 97.3224C200.178 95.7507 199.846 93.9667 199.846 92.0976C199.929 83.6871 199.97 75.2765 200.053 66.8659C200.053 64.827 199.804 62.8305 198.849 60.9615C197.561 58.4553 195.568 57.0111 192.827 56.5013C190.875 56.1615 188.965 56.3314 187.138 57.2235C184.937 58.2854 183.566 60.1119 182.777 62.4057C182.362 63.7225 182.196 65.0818 182.154 66.4411C182.113 75.0216 182.03 83.6446 181.947 92.2251C181.947 93.7543 181.615 95.241 180.867 96.5578C179.538 98.979 177.503 100.381 174.804 100.636C171.939 100.933 169.53 99.956 167.703 97.6197C166.581 96.1755 166 94.5189 166 92.6923C166.166 81.6906 166.249 70.7314 166.291 59.7296C166.332 59.7296 166.332 59.7296 166.291 59.7296Z" fill="#FFF"></path>
<path d="M76.0961 88.31C76.3976 88.31 76.5699 88.31 76.7422 88.31C81.1354 88.3527 85.5286 88.3527 89.9218 88.4382C91.0847 88.4382 92.2907 88.5664 93.4536 88.78C95.9948 89.2927 97.6746 91.0445 97.933 93.6509C98.0622 94.8045 98.0191 95.9155 97.6746 97.0264C96.9854 99.1627 95.3918 100.359 93.2383 100.744C92.2477 100.915 91.257 101 90.2233 101C80.6186 100.957 71.0138 100.872 61.4521 100.786C60.0307 100.786 58.6955 100.402 57.5757 99.5046C56.5851 98.6927 56.1113 97.6245 56.0252 96.3855C55.8529 94.5909 56.5851 93.0955 57.6188 91.7282C59.7292 88.8227 61.8828 85.96 63.9932 83.0973C67.9127 77.7991 71.8752 72.5436 75.7946 67.2455C75.8808 67.1173 75.9669 66.9891 76.1392 66.7755C75.8808 66.7755 75.7085 66.7327 75.5362 66.7327C71.9183 66.69 68.2573 66.69 64.6393 66.6473C63.4333 66.6473 62.2704 66.5618 61.1075 66.2627C58.7386 65.6645 57.1019 63.9982 56.8004 61.52C56.6281 60.1955 56.6712 58.9136 57.1881 57.6745C57.748 56.2645 58.7386 55.2818 60.16 54.6836C61.409 54.1709 62.7442 54 64.0794 54C73.1673 54.0427 82.2552 54.1282 91.3432 54.2136C92.7214 54.2136 94.0997 54.4273 95.2626 55.3245C97.1147 56.6918 97.7176 59.17 96.5547 61.1782C95.6933 62.5882 94.7027 63.9127 93.7121 65.2373C87.9837 72.8 82.2122 80.32 76.4407 87.84C76.3546 87.9682 76.2684 88.0964 76.0961 88.31Z" fill="#FFF"></path>
<path d="M33.6389 89.3194C33.9296 89.3194 34.0958 89.3194 34.262 89.3194C38.2914 89.3622 42.3209 89.3622 46.3919 89.4478C47.2642 89.4478 48.1366 89.5333 48.9674 89.7473C51.1275 90.2607 52.4984 91.6298 52.8723 93.8975C53.1215 95.3522 53.0384 96.807 52.3322 98.1761C51.5845 99.6736 50.3383 100.444 48.8013 100.743C47.9289 100.914 46.9735 101 46.0596 101C37.7929 100.957 29.5679 100.872 21.3012 100.786C20.1381 100.786 19.0165 100.615 17.978 100.016C16.7733 99.2886 16.1502 98.2189 16.0255 96.8498C15.8594 95.1811 16.524 93.7692 17.4379 92.4428C20.0965 88.6776 22.7967 84.9552 25.4553 81.1901C28.1139 77.5104 30.7725 73.7881 33.3896 70.1085C33.4727 69.9801 33.5558 69.8517 33.7219 69.6378C33.4727 69.6378 33.3481 69.595 33.1819 69.595C29.8586 69.5522 26.5354 69.5522 23.2536 69.5095C22.2982 69.5095 21.3843 69.3811 20.4704 69.1672C18.2272 68.6965 16.7733 66.7284 16.6902 64.3751C16.6487 63.391 16.6902 62.4498 17.0225 61.5085C17.4795 60.1393 18.3518 59.2408 19.5981 58.6418C20.7197 58.1284 21.9243 58 23.129 58C31.1464 58.0428 39.1638 58.1284 47.1396 58.2139C48.4689 58.2139 49.7567 58.4706 50.7952 59.4119C52.2491 60.6955 52.6646 62.8348 51.7091 64.5463C51.2106 65.4448 50.6291 66.3005 50.0059 67.1562C44.6887 74.2587 39.413 81.4896 34.0958 88.6776C33.9712 88.8488 33.8466 89.0199 33.6389 89.3194Z" fill="#FFF"></path>
<path d="M102.087 75.9024C102.13 70.158 102.174 64.4137 102.217 58.6693C102.217 57.2018 102.478 55.8181 103.261 54.5602C104.478 52.5895 106.217 51.4155 108.565 51.0801C110.391 50.8285 112.13 51.1639 113.696 52.1702C115.565 53.4281 116.652 55.1892 116.913 57.3695C117 57.9146 117 58.5016 117 59.0467C116.913 70.4935 116.826 81.8983 116.739 93.3451C116.739 94.7707 116.435 96.1124 115.739 97.3703C114.565 99.341 112.87 100.515 110.565 100.892C108.696 101.186 106.913 100.892 105.348 99.8442C103.478 98.6282 102.391 96.951 102.087 94.8126C102 94.2256 102 93.6386 102 93.0935C102 87.3072 102.043 81.6048 102.087 75.9024Z" fill="#FFF"></path>
<path d="M110.289 31.4877C110.331 31.4017 110.414 31.2296 110.538 31.1005C114.724 26.7552 118.951 22.4528 123.179 18.1075C124.09 17.161 125.127 16.4296 126.411 16.1714C128.276 15.7412 129.976 16.1284 131.468 17.247C132.711 18.1935 133.498 19.4412 133.83 20.947C134.244 22.8831 133.913 24.69 132.711 26.2819C132.338 26.7982 131.923 27.2284 131.468 27.7017C125.873 33.4238 120.277 39.1459 114.682 44.868C113.729 45.8145 112.652 46.5459 111.367 46.847C109.585 47.2343 107.886 46.8901 106.394 45.7715C105.938 45.4273 105.482 44.997 105.067 44.5668C101.71 41.0389 98.3947 37.511 95.0377 33.9831C94.1259 33.0366 93.4628 31.961 93.1727 30.6703C92.7582 28.7773 93.0898 26.9703 94.1674 25.3784C95.0791 24.0447 96.3225 23.1842 97.8974 22.8831C99.7209 22.4959 101.503 22.797 102.912 24.0447C104.404 25.3784 105.689 26.9273 107.098 28.347C108.134 29.3366 109.17 30.3261 110.289 31.4877Z" fill="#FFF"></path>
</svg>